<svg xmlns="http://www.w3.org/2000/svg" width="1200" height="220" viewBox="0 0 1200 220"><title>DetailEngine v1</title><g fill="#191C21" transform="translate(30 25) scale(0.17632241813602015) translate(-24 -138)"><path fill-rule="evenodd" d="M270,809 L286,818 L298,830 L304,839 L309,851 L309,854 L311,859 L311,880 L310,881 L310,884 L309,885 L309,888 L307,894 L301,907 L293,918 L275,935 L255,946 L246,949 L236,950 L235,951 L215,951 L214,950 L210,950 L209,949 L206,949 L200,947 L186,940 L170,925 L162,911 L162,909 L160,906 L159,899 L158,898 L158,893 L157,892 L158,873 L159,872 L159,868 L162,859 L168,847 L175,837 L188,824 L201,815 L214,809 L220,808 L224,806 L228,806 L229,805 L243,805 L244,804 L247,805 L256,805 L257,806 L261,806Z M658,348 L272,348 L270,350 L270,352 L259,375 L257,382 L250,396 L248,403 L241,417 L239,424 L235,431 L235,433 L233,436 L233,438 L230,443 L230,445 L227,450 L227,452 L224,457 L223,461 L347,461 L348,462 L347,466 L339,482 L336,491 L331,500 L328,509 L324,516 L324,518 L320,525 L320,527 L316,534 L316,536 L312,543 L312,545 L308,552 L308,554 L304,561 L304,563 L300,570 L300,572 L295,581 L295,583 L291,590 L288,599 L275,626 L275,628 L271,635 L271,637 L266,646 L266,648 L261,657 L261,659 L248,686 L248,688 L244,695 L244,697 L241,702 L241,704 L237,711 L237,713 L233,720 L233,722 L230,728 L228,730 L221,733 L194,750 L189,752 L177,760 L172,762 L150,776 L145,778 L128,789 L123,791 L121,793 L108,800 L108,802 L101,817 L101,819 L99,822 L95,834 L92,839 L92,841 L90,844 L86,856 L83,861 L79,873 L73,885 L73,887 L66,902 L62,914 L59,919 L59,921 L54,931 L52,938 L49,943 L45,955 L42,960 L42,962 L34,979 L30,991 L27,996 L27,998 L24,1004 L25,1005 L97,1005 L98,1004 L128,1004 L129,1005 L130,1004 L131,1005 L132,1004 L151,1004 L152,1005 L160,1005 L161,1004 L184,1004 L185,1005 L217,1005 L218,1004 L219,1005 L220,1004 L231,1004 L232,1005 L305,1004 L306,1005 L323,1005 L324,1004 L335,1004 L335,1002 L341,990 L341,988 L348,973 L350,966 L353,961 L355,954 L358,949 L358,947 L370,921 L372,914 L378,902 L380,895 L383,890 L385,883 L391,871 L393,864 L396,859 L396,857 L403,842 L405,835 L411,823 L413,816 L417,809 L416,804 L409,795 L403,785 L400,782 L392,769 L389,766 L381,753 L378,750 L373,741 L378,732 L380,725 L384,718 L386,711 L393,697 L395,690 L398,685 L398,683 L401,678 L401,676 L404,671 L404,669 L407,664 L407,662 L410,657 L410,655 L413,650 L413,648 L416,643 L416,641 L419,636 L419,634 L422,629 L422,627 L434,601 L436,594 L440,587 L440,585 L449,566 L451,559 L455,552 L457,545 L466,526 L466,524 L473,509 L473,507 L476,502 L476,500 L479,495 L479,493 L482,488 L484,481 L489,475 L509,461 L613,461 L619,448 L620,443 L622,440 L622,438 L628,425 L629,420 L631,417 L635,405 L638,400 L638,398 L640,395 L643,385 L645,382 L645,380 L647,377 L651,365 L654,360Z M360,138 L354,151 L354,153 L351,158 L351,160 L348,165 L346,172 L343,177 L343,179 L340,184 L340,186 L337,191 L337,193 L334,198 L334,200 L330,207 L328,214 L324,221 L324,223 L316,240 L313,249 L694,249 L695,252 L692,257 L692,259 L689,264 L686,273 L682,280 L682,282 L680,284 L298,284 L291,299 L289,306 L286,311 L286,313 L785,313 L786,314 L806,314 L807,315 L817,315 L818,316 L832,317 L833,318 L838,318 L839,319 L844,319 L849,321 L853,321 L854,322 L861,323 L876,328 L900,339 L913,348 L927,362 L934,372 L942,391 L944,404 L945,405 L945,412 L946,413 L946,441 L945,442 L945,451 L944,452 L943,465 L942,466 L941,476 L940,477 L940,481 L938,486 L937,495 L936,496 L933,511 L931,515 L929,526 L919,556 L919,559 L913,577 L911,580 L907,594 L905,597 L903,605 L901,608 L900,613 L898,616 L898,618 L896,621 L892,633 L883,652 L883,654 L859,704 L857,706 L854,713 L852,715 L850,720 L837,741 L816,767 L794,787 L777,799 L765,805 L763,807 L743,816 L722,823 L719,823 L710,826 L706,826 L705,827 L700,827 L699,828 L694,828 L693,829 L687,829 L686,830 L678,830 L677,831 L452,831 L445,846 L445,848 L442,853 L442,855 L437,865 L437,867 L432,877 L432,879 L429,884 L425,896 L416,915 L415,920 L411,927 L409,934 L403,946 L403,948 L398,958 L396,965 L387,984 L387,986 L385,989 L385,991 L383,994 L383,996 L379,1005 L470,1005 L471,1004 L474,1004 L475,1005 L480,1005 L481,1004 L482,1005 L599,1005 L600,1004 L629,1005 L630,1004 L651,1004 L652,1003 L663,1003 L664,1002 L681,1001 L682,1000 L695,999 L696,998 L701,998 L702,997 L707,997 L708,996 L713,996 L714,995 L733,992 L734,991 L737,991 L742,989 L746,989 L747,988 L762,985 L766,983 L773,982 L777,980 L780,980 L787,977 L790,977 L817,968 L820,966 L825,965 L828,963 L833,962 L838,959 L845,957 L857,951 L859,951 L870,945 L872,945 L896,933 L898,931 L905,928 L907,926 L912,924 L927,914 L930,913 L936,908 L956,895 L983,874 L999,859 L1000,859 L1033,826 L1033,825 L1053,803 L1077,772 L1104,732 L1105,729 L1119,707 L1121,702 L1123,700 L1127,691 L1129,689 L1139,668 L1143,662 L1143,660 L1158,630 L1158,628 L1164,616 L1164,614 L1174,591 L1175,586 L1177,583 L1193,535 L1193,532 L1198,517 L1198,514 L1200,509 L1200,505 L1203,496 L1203,492 L1205,487 L1205,482 L1207,476 L1207,471 L1208,470 L1209,460 L1210,459 L1210,453 L1211,452 L1211,446 L1212,445 L1213,426 L1214,425 L1214,410 L1215,409 L1215,380 L1214,379 L1214,366 L1213,365 L1213,357 L1212,356 L1212,350 L1211,349 L1209,333 L1208,332 L1205,317 L1199,299 L1185,269 L1175,253 L1168,245 L1165,240 L1150,224 L1149,224 L1140,215 L1123,202 L1104,190 L1078,177 L1076,177 L1071,174 L1061,171 L1058,169 L1053,168 L1050,166 L1041,163 L1038,163 L1031,160 L1028,160 L1024,158 L1021,158 L1020,157 L1017,157 L1016,156 L1013,156 L1012,155 L1009,155 L1008,154 L1005,154 L1004,153 L1001,153 L992,150 L988,150 L987,149 L983,149 L982,148 L978,148 L972,146 L967,146 L966,145 L947,143 L946,142 L938,142 L937,141 L930,141 L929,140 L919,140 L918,139 L903,139 L902,138Z"/></g><g fill="#191C21" transform="translate(280 125) scale(1.4121084239571495)"><path d="M7.300000000000001 -1.0 15.700000000000001 -69.0Q15.700000000000001 -69.4 16.0 -69.7Q16.3 -70.0 16.7 -70.0H39.6Q48.400000000000006 -70.0 53.400000000000006 -65.65Q58.400000000000006 -61.300000000000004 58.400000000000006 -53.7Q58.400000000000006 -52.7 58.2 -50.7L54.400000000000006 -19.3Q53.300000000000004 -10.4 46.95 -5.2Q40.6 0.0 31.0 0.0H8.1Q7.7 0.0 7.45 -0.30000000000000004Q7.2 -0.6000000000000001 7.300000000000001 -1.0ZM15.200000000000001 -6.2H32.1Q38.400000000000006 -6.2 42.60000000000001 -10.0Q46.800000000000004 -13.8 47.6 -20.200000000000003L51.2 -49.7Q51.400000000000006 -51.5 51.400000000000006 -52.2Q51.400000000000006 -57.6 48.2 -60.7Q45.0 -63.800000000000004 39.2 -63.800000000000004H22.3Q22.0 -63.800000000000004 21.8 -63.400000000000006L14.9 -6.6000000000000005Q14.9 -6.2 15.200000000000001 -6.2Z M115.9 -63.800000000000004H80.2Q79.9 -63.800000000000004 79.7 -63.400000000000006L76.7 -38.7Q76.7 -38.300000000000004 77.10000000000001 -38.300000000000004H102.10000000000001Q103.10000000000001 -38.300000000000004 102.9 -37.300000000000004L102.4 -33.1Q102.20000000000002 -32.1 101.30000000000001 -32.1H76.30000000000001Q75.9 -32.1 75.9 -31.700000000000003L72.80000000000001 -6.6000000000000005Q72.80000000000001 -6.2 73.10000000000001 -6.2H108.80000000000001Q109.70000000000002 -6.2 109.70000000000002 -5.2L109.10000000000001 -1.0Q109.10000000000001 -0.6000000000000001 108.80000000000001 -0.30000000000000004Q108.5 0.0 108.0 0.0H66.0Q65.60000000000001 0.0 65.35000000000001 -0.30000000000000004Q65.10000000000001 -0.6000000000000001 65.2 -1.0L73.60000000000001 -69.0Q73.60000000000001 -69.4 73.9 -69.7Q74.2 -70.0 74.60000000000001 -70.0H116.60000000000001Q117.10000000000001 -70.0 117.35000000000001 -69.7Q117.60000000000001 -69.4 117.5 -69.0L117.0 -64.8Q116.80000000000001 -63.800000000000004 115.9 -63.800000000000004Z M172.20000000000002 -69.0 171.60000000000002 -64.7Q171.60000000000002 -64.3 171.3 -64.0Q171.0 -63.7 170.5 -63.7H151.5Q151.10000000000002 -63.7 151.10000000000002 -63.300000000000004L143.4 -1.0Q143.4 -0.6000000000000001 143.10000000000002 -0.30000000000000004Q142.8 0.0 142.3 0.0H137.4Q136.5 0.0 136.5 -1.0L144.20000000000002 -63.300000000000004Q144.20000000000002 -63.7 143.9 -63.7H125.60000000000001Q124.60000000000001 -63.7 124.80000000000001 -64.7L125.30000000000001 -69.0Q125.50000000000001 -70.0 126.4 -70.0H171.3Q172.20000000000002 -70.0 172.20000000000002 -69.0Z M214.20000000000002 -0.8 211.8 -13.4Q211.8 -13.700000000000001 211.5 -13.700000000000001H182.5Q182.20000000000002 -13.700000000000001 182.10000000000002 -13.4L176.60000000000002 -0.8Q176.3 0.0 175.4 0.0H170.10000000000002Q169.0 0.0 169.5 -1.1L199.3 -69.2Q199.4 -69.60000000000001 199.8 -69.80000000000001Q200.20000000000002 -70.0 200.5 -70.0H207.10000000000002Q207.5 -70.0 207.8 -69.80000000000001Q208.10000000000002 -69.60000000000001 208.20000000000002 -69.2L221.4 -1.1V-0.9Q221.4 0.0 220.5 0.0H215.20000000000002Q214.4 0.0 214.20000000000002 -0.8ZM185.10000000000002 -19.5H210.20000000000002Q210.4 -19.5 210.55 -19.700000000000003Q210.70000000000002 -19.900000000000002 210.60000000000002 -20.0L203.0 -60.800000000000004Q202.9 -61.0 202.75 -61.0Q202.60000000000002 -61.0 202.4 -60.800000000000004L184.8 -20.0Q184.70000000000002 -19.8 184.8 -19.65Q184.9 -19.5 185.10000000000002 -19.5Z M232.00000000000003 -1.0 240.4 -69.0Q240.4 -69.4 240.70000000000002 -69.7Q241.00000000000003 -70.0 241.4 -70.0H246.40000000000003Q247.40000000000003 -70.0 247.20000000000002 -69.0L238.9 -1.0Q238.70000000000002 0.0 237.8 0.0H232.8Q232.4 0.0 232.15 -0.30000000000000004Q231.9 -0.6000000000000001 232.00000000000003 -1.0Z M255.10000000000002 -1.0 263.5 -69.0Q263.5 -69.4 263.8 -69.7Q264.1 -70.0 264.5 -70.0H269.5Q270.5 -70.0 270.3 -69.0L262.7 -6.6000000000000005Q262.7 -6.2 263.0 -6.2H297.3Q297.70000000000005 -6.2 297.95000000000005 -5.9Q298.20000000000005 -5.6000000000000005 298.1 -5.2L297.6 -1.0Q297.40000000000003 0.0 296.5 0.0H255.9Q255.5 0.0 255.25 -0.30000000000000004Q255.0 -0.6000000000000001 255.10000000000002 -1.0Z"/><g transform="translate(300.90000000000003 0)"><path d="M56.7 -55.800000000000004H26.3Q25.700000000000003 -55.800000000000004 25.700000000000003 -55.300000000000004L24.200000000000003 -43.0Q24.200000000000003 -42.5 24.6 -42.5H44.1Q44.6 -42.5 44.900000000000006 -42.150000000000006Q45.2 -41.800000000000004 45.1 -41.300000000000004L43.7 -29.6Q43.6 -29.1 43.25 -28.75Q42.900000000000006 -28.400000000000002 42.400000000000006 -28.400000000000002H22.900000000000002Q22.5 -28.400000000000002 22.3 -27.900000000000002L20.700000000000003 -14.700000000000001Q20.700000000000003 -14.200000000000001 21.1 -14.200000000000001H51.6Q52.1 -14.200000000000001 52.400000000000006 -13.850000000000001Q52.7 -13.5 52.6 -13.0L51.2 -1.2000000000000002Q51.1 -0.7000000000000001 50.75 -0.35000000000000003Q50.400000000000006 0.0 49.900000000000006 0.0H4.0Q3.5 0.0 3.2 -0.35000000000000003Q2.9000000000000004 -0.7000000000000001 3.0 -1.2000000000000002L11.3 -68.8Q11.3 -69.3 11.700000000000001 -69.65Q12.100000000000001 -70.0 12.600000000000001 -70.0H58.5Q59.0 -70.0 59.3 -69.65Q59.6 -69.3 59.5 -68.8L58.0 -57.0Q57.900000000000006 -56.5 57.550000000000004 -56.150000000000006Q57.2 -55.800000000000004 56.7 -55.800000000000004Z M105.0 -70.0H118.80000000000001Q119.30000000000001 -70.0 119.60000000000001 -69.65Q119.9 -69.3 119.80000000000001 -68.8L111.5 -1.2000000000000002Q111.4 -0.7000000000000001 111.05000000000001 -0.35000000000000003Q110.70000000000002 0.0 110.20000000000002 0.0H97.0Q96.0 0.0 95.70000000000002 -0.8L78.10000000000001 -39.0Q77.9 -39.300000000000004 77.7 -39.25Q77.5 -39.2 77.5 -38.800000000000004L73.0 -1.2000000000000002Q72.9 -0.7000000000000001 72.55000000000001 -0.35000000000000003Q72.2 0.0 71.7 0.0H57.900000000000006Q57.400000000000006 0.0 57.10000000000001 -0.35000000000000003Q56.800000000000004 -0.7000000000000001 56.900000000000006 -1.2000000000000002L65.2 -68.8Q65.2 -69.3 65.6 -69.65Q66.0 -70.0 66.5 -70.0H79.80000000000001Q80.7 -70.0 81.0 -69.2L98.60000000000001 -31.1Q98.70000000000002 -30.8 98.9 -30.85Q99.10000000000001 -30.900000000000002 99.20000000000002 -31.3L103.70000000000002 -68.8Q103.80000000000001 -69.3 104.15 -69.65Q104.5 -70.0 105.0 -70.0Z M120.7 -20.900000000000002Q120.7 -23.5 120.9 -24.8L123.4 -45.300000000000004Q124.30000000000001 -52.900000000000006 128.25 -58.650000000000006Q132.20000000000002 -64.4 138.5 -67.6Q144.8 -70.8 152.5 -70.8Q159.60000000000002 -70.8 164.90000000000003 -68.15Q170.20000000000002 -65.5 173.05 -60.900000000000006Q175.9 -56.300000000000004 175.9 -50.6Q175.9 -49.7 175.70000000000002 -47.7L175.60000000000002 -47.2Q175.5 -46.7 175.15 -46.35Q174.8 -46.0 174.3 -46.0H160.5Q160.0 -46.0 159.7 -46.35Q159.4 -46.7 159.5 -47.2Q159.60000000000002 -47.6 159.60000000000002 -48.400000000000006Q159.60000000000002 -51.900000000000006 157.3 -54.25Q155.0 -56.6 150.8 -56.6Q146.4 -56.6 143.3 -53.6Q140.20000000000002 -50.6 139.60000000000002 -45.800000000000004L136.9 -24.3Q136.8 -23.8 136.8 -22.700000000000003Q136.8 -18.6 139.45000000000002 -16.05Q142.10000000000002 -13.5 146.20000000000002 -13.5Q150.5 -13.5 153.4 -15.85Q156.3 -18.2 156.8 -22.400000000000002L157.10000000000002 -25.200000000000003Q157.3 -25.700000000000003 156.70000000000002 -25.700000000000003H147.0Q146.5 -25.700000000000003 146.2 -26.050000000000004Q145.9 -26.400000000000002 146.0 -26.900000000000002L147.3 -37.9Q147.4 -38.400000000000006 147.75 -38.75Q148.10000000000002 -39.1 148.60000000000002 -39.1H173.5Q174.0 -39.1 174.3 -38.75Q174.60000000000002 -38.400000000000006 174.5 -37.9L172.8 -24.3Q171.9 -16.8 168.0 -11.100000000000001Q164.10000000000002 -5.4 157.8 -2.3000000000000003Q151.5 0.8 143.70000000000002 0.8Q133.10000000000002 0.8 126.9 -5.1Q120.7 -11.0 120.7 -20.900000000000002Z M176.4 -1.2000000000000002 184.70000000000002 -68.8Q184.70000000000002 -69.3 185.10000000000002 -69.65Q185.5 -70.0 186.0 -70.0H199.70000000000002Q200.8 -70.0 200.8 -68.8L192.5 -1.2000000000000002Q192.4 -0.7000000000000001 192.05 -0.35000000000000003Q191.70000000000002 0.0 191.20000000000002 0.0H177.4Q176.9 0.0 176.60000000000002 -0.35000000000000003Q176.3 -0.7000000000000001 176.4 -1.2000000000000002Z M248.20000000000002 -70.0H262.0Q262.5 -70.0 262.8 -69.65Q263.1 -69.3 263.0 -68.8L254.70000000000002 -1.2000000000000002Q254.60000000000002 -0.7000000000000001 254.25000000000003 -0.35000000000000003Q253.90000000000003 0.0 253.40000000000003 0.0H240.20000000000002Q239.20000000000002 0.0 238.90000000000003 -0.8L221.3 -39.0Q221.10000000000002 -39.300000000000004 220.90000000000003 -39.25Q220.70000000000002 -39.2 220.70000000000002 -38.800000000000004L216.20000000000002 -1.2000000000000002Q216.10000000000002 -0.7000000000000001 215.75000000000003 -0.35000000000000003Q215.40000000000003 0.0 214.90000000000003 0.0H201.10000000000002Q200.60000000000002 0.0 200.3 -0.35000000000000003Q200.00000000000003 -0.7000000000000001 200.10000000000002 -1.2000000000000002L208.40000000000003 -68.8Q208.40000000000003 -69.3 208.8 -69.65Q209.20000000000002 -70.0 209.70000000000002 -70.0H223.00000000000003Q223.90000000000003 -70.0 224.20000000000002 -69.2L241.8 -31.1Q241.90000000000003 -30.8 242.10000000000002 -30.85Q242.3 -30.900000000000002 242.40000000000003 -31.3L246.90000000000003 -68.8Q247.00000000000003 -69.3 247.35000000000002 -69.65Q247.70000000000002 -70.0 248.20000000000002 -70.0Z M316.0 -55.800000000000004H285.6Q285.0 -55.800000000000004 285.0 -55.300000000000004L283.5 -43.0Q283.5 -42.5 283.90000000000003 -42.5H303.40000000000003Q303.90000000000003 -42.5 304.20000000000005 -42.150000000000006Q304.5 -41.800000000000004 304.40000000000003 -41.300000000000004L303.0 -29.6Q302.90000000000003 -29.1 302.55000000000007 -28.75Q302.20000000000005 -28.400000000000002 301.70000000000005 -28.400000000000002H282.2Q281.8 -28.400000000000002 281.6 -27.900000000000002L280.0 -14.700000000000001Q280.0 -14.200000000000001 280.40000000000003 -14.200000000000001H310.90000000000003Q311.40000000000003 -14.200000000000001 311.70000000000005 -13.850000000000001Q312.0 -13.5 311.90000000000003 -13.0L310.5 -1.2000000000000002Q310.40000000000003 -0.7000000000000001 310.05000000000007 -0.35000000000000003Q309.70000000000005 0.0 309.20000000000005 0.0H263.3Q262.8 0.0 262.5 -0.35000000000000003Q262.2 -0.7000000000000001 262.3 -1.2000000000000002L270.6 -68.8Q270.6 -69.3 271.0 -69.65Q271.40000000000003 -70.0 271.90000000000003 -70.0H317.8Q318.3 -70.0 318.6 -69.65Q318.90000000000003 -69.3 318.8 -68.8L317.3 -57.0Q317.20000000000005 -56.5 316.85 -56.150000000000006Q316.5 -55.800000000000004 316.0 -55.800000000000004Z"/></g></g><g fill="#191C21" transform="translate(280 171) scale(0.3098539698122469)"><path d="M45.5 -35.9Q56.1 -31.400000000000002 56.1 -19.200000000000003Q56.1 -10.0 50.0 -5.0Q43.900000000000006 0.0 34.1 0.0H9.200000000000001Q8.200000000000001 0.0 8.200000000000001 -1.0V-69.0Q8.200000000000001 -70.0 9.200000000000001 -70.0H33.300000000000004Q43.7 -70.0 49.45 -65.25Q55.2 -60.5 55.2 -51.400000000000006Q55.2 -40.6 45.5 -36.5Q45.0 -36.2 45.5 -35.9ZM17.8 -61.300000000000004V-40.2Q17.8 -39.800000000000004 18.2 -39.800000000000004H33.300000000000004Q39.1 -39.800000000000004 42.45 -42.7Q45.800000000000004 -45.6 45.800000000000004 -50.6Q45.800000000000004 -55.7 42.45 -58.7Q39.1 -61.7 33.300000000000004 -61.7H18.2Q17.8 -61.7 17.8 -61.300000000000004ZM46.5 -20.1Q46.5 -25.5 43.1 -28.65Q39.7 -31.8 33.800000000000004 -31.8H18.2Q17.8 -31.8 17.8 -31.400000000000002V-8.8Q17.8 -8.4 18.2 -8.4H34.1Q39.800000000000004 -8.4 43.150000000000006 -11.55Q46.5 -14.700000000000001 46.5 -20.1Z M85.9 -22.200000000000003V-69.0Q85.9 -70.0 86.9 -70.0H94.5Q95.5 -70.0 95.5 -69.0V-22.0Q95.5 -15.5 99.65 -11.5Q103.80000000000001 -7.5 110.5 -7.5Q117.20000000000002 -7.5 121.30000000000001 -11.5Q125.4 -15.5 125.4 -22.0V-69.0Q125.4 -70.0 126.4 -70.0H134.0Q135.0 -70.0 135.0 -69.0V-22.200000000000003Q135.0 -15.4 131.95 -10.15Q128.9 -4.9 123.35000000000001 -2.0500000000000003Q117.80000000000001 0.8 110.5 0.8Q103.2 0.8 97.65 -2.0500000000000003Q92.10000000000001 -4.9 89.0 -10.15Q85.9 -15.4 85.9 -22.200000000000003Z M166.7 -1.0V-69.0Q166.7 -70.0 167.7 -70.0H175.3Q176.3 -70.0 176.3 -69.0V-1.0Q176.3 0.0 175.3 0.0H167.7Q166.7 0.0 166.7 -1.0Z M208.7 -1.0V-69.0Q208.7 -70.0 209.7 -70.0H217.3Q218.3 -70.0 218.3 -69.0V-8.700000000000001Q218.3 -8.3 218.7 -8.3H253.2Q254.2 -8.3 254.2 -7.300000000000001V-1.0Q254.2 0.0 253.2 0.0H209.7Q208.7 0.0 208.7 -1.0Z M327.2 -69.0V-62.6Q327.2 -61.6 326.2 -61.6H307.0Q306.6 -61.6 306.6 -61.2V-1.0Q306.6 0.0 305.6 0.0H298.0Q297.0 0.0 297.0 -1.0V-61.2Q297.0 -61.6 296.6 -61.6H278.3Q277.3 -61.6 277.3 -62.6V-69.0Q277.3 -70.0 278.3 -70.0H326.2Q327.2 -70.0 327.2 -69.0Z  M436.59999999999997 -69.0V-62.6Q436.59999999999997 -61.6 435.59999999999997 -61.6H416.4Q416.0 -61.6 416.0 -61.2V-1.0Q416.0 0.0 415.0 0.0H407.4Q406.4 0.0 406.4 -1.0V-61.2Q406.4 -61.6 406.0 -61.6H387.7Q386.7 -61.6 386.7 -62.6V-69.0Q386.7 -70.0 387.7 -70.0H435.59999999999997Q436.59999999999997 -70.0 436.59999999999997 -69.0Z M462.59999999999997 -23.1V-46.900000000000006Q462.59999999999997 -54.0 465.69999999999993 -59.4Q468.79999999999995 -64.8 474.4 -67.8Q479.99999999999994 -70.8 487.29999999999995 -70.8Q494.69999999999993 -70.8 500.29999999999995 -67.8Q505.9 -64.8 508.99999999999994 -59.4Q512.0999999999999 -54.0 512.0999999999999 -46.900000000000006V-23.1Q512.0999999999999 -16.0 508.99999999999994 -10.55Q505.9 -5.1000000000000005 500.29999999999995 -2.1Q494.69999999999993 0.9 487.29999999999995 0.9Q479.99999999999994 0.9 474.4 -2.1Q468.79999999999995 -5.1000000000000005 465.69999999999993 -10.55Q462.59999999999997 -16.0 462.59999999999997 -23.1ZM502.49999999999994 -22.700000000000003V-47.0Q502.49999999999994 -54.0 498.29999999999995 -58.25Q494.09999999999997 -62.5 487.29999999999995 -62.5Q480.49999999999994 -62.5 476.3499999999999 -58.25Q472.19999999999993 -54.0 472.19999999999993 -47.0V-22.700000000000003Q472.19999999999993 -15.8 476.3499999999999 -11.600000000000001Q480.49999999999994 -7.4 487.29999999999995 -7.4Q494.09999999999997 -7.4 498.29999999999995 -11.600000000000001Q502.49999999999994 -15.8 502.49999999999994 -22.700000000000003Z  M578.7 -1.0V-69.0Q578.7 -70.0 579.7 -70.0H587.3Q588.3 -70.0 588.3 -69.0V-37.1Q588.3 -36.9 588.5 -36.85Q588.7 -36.800000000000004 588.8 -37.0L617.4 -69.4Q617.8 -70.0 618.6 -70.0H627.3Q627.9 -70.0 628.0999999999999 -69.65Q628.3 -69.3 627.9 -68.8L604.1 -40.7Q604.0 -40.400000000000006 604.1 -40.1L629.6 -1.2000000000000002Q629.8 -0.8 629.8 -0.6000000000000001Q629.8 0.0 629.0 0.0H620.3Q619.6 0.0 619.1 -0.6000000000000001L597.5 -33.300000000000004Q597.4 -33.5 597.2 -33.5Q597.0 -33.5 596.9 -33.4L588.5 -24.0Q588.3 -23.6 588.3 -23.5V-1.0Q588.3 0.0 587.3 0.0H579.7Q578.7 0.0 578.7 -1.0Z M701.8000000000001 -61.7H666.3000000000001Q665.9 -61.7 665.9 -61.300000000000004V-39.800000000000004Q665.9 -39.400000000000006 666.3000000000001 -39.400000000000006H690.7Q691.7 -39.400000000000006 691.7 -38.400000000000006V-32.1Q691.7 -31.1 690.7 -31.1H666.3000000000001Q665.9 -31.1 665.9 -30.700000000000003V-8.700000000000001Q665.9 -8.3 666.3000000000001 -8.3H701.8000000000001Q702.8000000000001 -8.3 702.8000000000001 -7.300000000000001V-1.0Q702.8000000000001 0.0 701.8000000000001 0.0H657.3000000000001Q656.3000000000001 0.0 656.3000000000001 -1.0V-69.0Q656.3000000000001 -70.0 657.3000000000001 -70.0H701.8000000000001Q702.8000000000001 -70.0 702.8000000000001 -69.0V-62.7Q702.8000000000001 -61.7 701.8000000000001 -61.7Z M777.6000000000001 -61.7H742.1000000000001Q741.7 -61.7 741.7 -61.300000000000004V-39.800000000000004Q741.7 -39.400000000000006 742.1000000000001 -39.400000000000006H766.5000000000001Q767.5000000000001 -39.400000000000006 767.5000000000001 -38.400000000000006V-32.1Q767.5000000000001 -31.1 766.5000000000001 -31.1H742.1000000000001Q741.7 -31.1 741.7 -30.700000000000003V-8.700000000000001Q741.7 -8.3 742.1000000000001 -8.3H777.6000000000001Q778.6000000000001 -8.3 778.6000000000001 -7.300000000000001V-1.0Q778.6000000000001 0.0 777.6000000000001 0.0H733.1000000000001Q732.1000000000001 0.0 732.1000000000001 -1.0V-69.0Q732.1000000000001 -70.0 733.1000000000001 -70.0H777.6000000000001Q778.6000000000001 -70.0 778.6000000000001 -69.0V-62.7Q778.6000000000001 -61.7 777.6000000000001 -61.7Z M855.8000000000001 -49.800000000000004Q855.8000000000001 -43.800000000000004 853.2 -39.300000000000004Q850.6 -34.800000000000004 845.85 -32.300000000000004Q841.1 -29.8 834.9000000000001 -29.8H817.3000000000001Q816.9000000000001 -29.8 816.9000000000001 -29.400000000000002V-1.0Q816.9000000000001 0.0 815.9000000000001 0.0H808.3000000000001Q807.3000000000001 0.0 807.3000000000001 -1.0V-69.10000000000001Q807.3000000000001 -70.10000000000001 808.3000000000001 -70.10000000000001H835.3000000000001Q841.4000000000001 -70.10000000000001 846.0500000000001 -67.55000000000001Q850.7 -65.0 853.25 -60.400000000000006Q855.8000000000001 -55.800000000000004 855.8000000000001 -49.800000000000004ZM846.2 -49.6Q846.2 -55.1 842.85 -58.45Q839.5 -61.800000000000004 834.0 -61.800000000000004H817.3000000000001Q816.9000000000001 -61.800000000000004 816.9000000000001 -61.400000000000006V-38.0Q816.9000000000001 -37.6 817.3000000000001 -37.6H834.0Q839.5 -37.6 842.85 -40.900000000000006Q846.2 -44.2 846.2 -49.6Z  M935.4 -1.1V-29.200000000000003Q935.4 -29.6 935.3 -29.700000000000003L914.5 -68.8Q914.4 -69.0 914.4 -69.3Q914.4 -70.0 915.2 -70.0H923.4Q924.3 -70.0 924.6 -69.3L939.9 -40.0Q940.0 -39.800000000000004 940.2 -39.800000000000004Q940.4 -39.800000000000004 940.5 -40.0L955.8 -69.3Q956.1 -70.0 957.0 -70.0H965.3Q965.8 -70.0 966.05 -69.65Q966.3 -69.3 966.0 -68.8L945.1 -29.700000000000003Q945.0 -29.6 945.0 -29.200000000000003V-1.1Q945.0 -0.1 944.0 -0.1H936.4Q935.4 -0.1 935.4 -1.1Z M991.8 -23.1V-46.900000000000006Q991.8 -54.0 994.9 -59.4Q998.0 -64.8 1003.6 -67.8Q1009.2 -70.8 1016.5 -70.8Q1023.9 -70.8 1029.5 -67.8Q1035.1 -64.8 1038.1999999999998 -59.4Q1041.3 -54.0 1041.3 -46.900000000000006V-23.1Q1041.3 -16.0 1038.1999999999998 -10.55Q1035.1 -5.1000000000000005 1029.5 -2.1Q1023.9 0.9 1016.5 0.9Q1009.2 0.9 1003.6 -2.1Q998.0 -5.1000000000000005 994.9 -10.55Q991.8 -16.0 991.8 -23.1ZM1031.7 -22.700000000000003V-47.0Q1031.7 -54.0 1027.5 -58.25Q1023.3 -62.5 1016.5 -62.5Q1009.7 -62.5 1005.55 -58.25Q1001.4 -54.0 1001.4 -47.0V-22.700000000000003Q1001.4 -15.8 1005.55 -11.600000000000001Q1009.7 -7.4 1016.5 -7.4Q1023.3 -7.4 1027.5 -11.600000000000001Q1031.7 -15.8 1031.7 -22.700000000000003Z M1071.2 -22.200000000000003V-69.0Q1071.2 -70.0 1072.2 -70.0H1079.8Q1080.8 -70.0 1080.8 -69.0V-22.0Q1080.8 -15.5 1084.95 -11.5Q1089.1000000000001 -7.5 1095.8 -7.5Q1102.5 -7.5 1106.6 -11.5Q1110.7 -15.5 1110.7 -22.0V-69.0Q1110.7 -70.0 1111.7 -70.0H1119.3Q1120.3 -70.0 1120.3 -69.0V-22.200000000000003Q1120.3 -15.4 1117.25 -10.15Q1114.2 -4.9 1108.65 -2.0500000000000003Q1103.1000000000001 0.8 1095.8 0.8Q1088.5 0.8 1082.95 -2.0500000000000003Q1077.4 -4.9 1074.3000000000002 -10.15Q1071.2 -15.4 1071.2 -22.200000000000003Z  M1225.3 -35.9Q1235.8999999999999 -31.400000000000002 1235.8999999999999 -19.200000000000003Q1235.8999999999999 -10.0 1229.8 -5.0Q1223.7 0.0 1213.8999999999999 0.0H1189.0Q1188.0 0.0 1188.0 -1.0V-69.0Q1188.0 -70.0 1189.0 -70.0H1213.1Q1223.5 -70.0 1229.25 -65.25Q1235.0 -60.5 1235.0 -51.400000000000006Q1235.0 -40.6 1225.3 -36.5Q1224.8 -36.2 1225.3 -35.9ZM1197.6 -61.300000000000004V-40.2Q1197.6 -39.800000000000004 1198.0 -39.800000000000004H1213.1Q1218.8999999999999 -39.800000000000004 1222.25 -42.7Q1225.6 -45.6 1225.6 -50.6Q1225.6 -55.7 1222.25 -58.7Q1218.8999999999999 -61.7 1213.1 -61.7H1198.0Q1197.6 -61.7 1197.6 -61.300000000000004ZM1226.3 -20.1Q1226.3 -25.5 1222.9 -28.65Q1219.5 -31.8 1213.6 -31.8H1198.0Q1197.6 -31.8 1197.6 -31.400000000000002V-8.8Q1197.6 -8.4 1198.0 -8.4H1213.8999999999999Q1219.6 -8.4 1222.9499999999998 -11.55Q1226.3 -14.700000000000001 1226.3 -20.1Z M1264.5 -23.1V-46.900000000000006Q1264.5 -54.0 1267.6 -59.4Q1270.7 -64.8 1276.3000000000002 -67.8Q1281.9 -70.8 1289.2 -70.8Q1296.6000000000001 -70.8 1302.2 -67.8Q1307.8 -64.8 1310.9 -59.4Q1314.0 -54.0 1314.0 -46.900000000000006V-23.1Q1314.0 -16.0 1310.9 -10.55Q1307.8 -5.1000000000000005 1302.2 -2.1Q1296.6000000000001 0.9 1289.2 0.9Q1281.9 0.9 1276.3000000000002 -2.1Q1270.7 -5.1000000000000005 1267.6 -10.55Q1264.5 -16.0 1264.5 -23.1ZM1304.4 -22.700000000000003V-47.0Q1304.4 -54.0 1300.2 -58.25Q1296.0 -62.5 1289.2 -62.5Q1282.4 -62.5 1278.25 -58.25Q1274.1000000000001 -54.0 1274.1000000000001 -47.0V-22.700000000000003Q1274.1000000000001 -15.8 1278.25 -11.600000000000001Q1282.4 -7.4 1289.2 -7.4Q1296.0 -7.4 1300.2 -11.600000000000001Q1304.4 -15.8 1304.4 -22.700000000000003Z M1342.7 -23.1V-46.900000000000006Q1342.7 -54.0 1345.8000000000002 -59.4Q1348.9 -64.8 1354.5 -67.8Q1360.1000000000001 -70.8 1367.4 -70.8Q1374.8000000000002 -70.8 1380.4 -67.8Q1386.0 -64.8 1389.1 -59.4Q1392.2 -54.0 1392.2 -46.900000000000006V-23.1Q1392.2 -16.0 1389.1 -10.55Q1386.0 -5.1000000000000005 1380.4 -2.1Q1374.8000000000002 0.9 1367.4 0.9Q1360.1000000000001 0.9 1354.5 -2.1Q1348.9 -5.1000000000000005 1345.8000000000002 -10.55Q1342.7 -16.0 1342.7 -23.1ZM1382.6000000000001 -22.700000000000003V-47.0Q1382.6000000000001 -54.0 1378.4 -58.25Q1374.2 -62.5 1367.4 -62.5Q1360.6000000000001 -62.5 1356.4500000000003 -58.25Q1352.3000000000002 -54.0 1352.3000000000002 -47.0V-22.700000000000003Q1352.3000000000002 -15.8 1356.4500000000003 -11.600000000000001Q1360.6000000000001 -7.4 1367.4 -7.4Q1374.2 -7.4 1378.4 -11.600000000000001Q1382.6000000000001 -15.8 1382.6000000000001 -22.700000000000003Z M1422.8000000000002 -1.0V-69.0Q1422.8000000000002 -70.0 1423.8000000000002 -70.0H1431.4Q1432.4 -70.0 1432.4 -69.0V-37.1Q1432.4 -36.9 1432.6000000000001 -36.85Q1432.8000000000002 -36.800000000000004 1432.9 -37.0L1461.5000000000002 -69.4Q1461.9 -70.0 1462.7 -70.0H1471.4Q1472.0000000000002 -70.0 1472.2000000000003 -69.65Q1472.4 -69.3 1472.0000000000002 -68.8L1448.2 -40.7Q1448.1000000000001 -40.400000000000006 1448.2 -40.1L1473.7 -1.2000000000000002Q1473.9 -0.8 1473.9 -0.6000000000000001Q1473.9 0.0 1473.1000000000001 0.0H1464.4Q1463.7 0.0 1463.2 -0.6000000000000001L1441.6000000000001 -33.300000000000004Q1441.5000000000002 -33.5 1441.3000000000002 -33.5Q1441.1000000000001 -33.5 1441.0000000000002 -33.4L1432.6000000000001 -24.0Q1432.4 -23.6 1432.4 -23.5V-1.0Q1432.4 0.0 1431.4 0.0H1423.8000000000002Q1422.8000000000002 0.0 1422.8000000000002 -1.0Z M1545.9 -61.7H1510.4Q1510.0 -61.7 1510.0 -61.300000000000004V-39.800000000000004Q1510.0 -39.400000000000006 1510.4 -39.400000000000006H1534.8Q1535.8 -39.400000000000006 1535.8 -38.400000000000006V-32.1Q1535.8 -31.1 1534.8 -31.1H1510.4Q1510.0 -31.1 1510.0 -30.700000000000003V-8.700000000000001Q1510.0 -8.3 1510.4 -8.3H1545.9Q1546.9 -8.3 1546.9 -7.300000000000001V-1.0Q1546.9 0.0 1545.9 0.0H1501.4Q1500.4 0.0 1500.4 -1.0V-69.0Q1500.4 -70.0 1501.4 -70.0H1545.9Q1546.9 -70.0 1546.9 -69.0V-62.7Q1546.9 -61.7 1545.9 -61.7Z M1576.2 -1.0V-69.0Q1576.2 -70.0 1577.2 -70.0H1601.4Q1611.8 -70.0 1618.0 -64.55Q1624.2 -59.1 1624.2 -50.0V-20.0Q1624.2 -10.9 1618.0 -5.45Q1611.8 0.0 1601.4 0.0H1577.2Q1576.2 0.0 1576.2 -1.0ZM1586.2 -8.3H1601.8Q1607.6 -8.3 1611.05 -11.850000000000001Q1614.5 -15.4 1614.6 -21.400000000000002V-48.6Q1614.6 -54.6 1611.15 -58.150000000000006Q1607.7 -61.7 1601.8 -61.7H1586.2Q1585.8 -61.7 1585.8 -61.300000000000004V-8.700000000000001Q1585.8 -8.3 1586.2 -8.3Z"/></g></svg>